<svg width="24" height="24" viewBox="0 0 24 24" fill="none" xmlns="http://www.w3.org/2000/svg">
<path d="M12 1C5.92487 1 1 5.92487 1 12C1 18.0751 5.92487 23 12 23C18.0751 23 23 18.0751 23 12C23 5.92487 18.0751 1 12 1Z" stroke="#2C3E50" stroke-width="1.5" stroke-miterlimit="10"/>
<rect x="4" y="5" width="8" height="3.5" rx="1.5" fill="url(#paint0_linear_287_290)"/>
<rect x="4" y="9.75" width="8" height="3.5" rx="1.5" fill="url(#paint1_linear_287_290)"/>
<rect x="4" y="14.5" width="8" height="3.5" rx="1.5" fill="url(#paint2_linear_287_290)"/>
<path d="M12 6.75H14.5C15.0523 6.75 15.5 7.19772 15.5 7.75V7.75C15.5 8.30228 15.0523 8.75 14.5 8.75H12V6.75Z" fill="#75C2BE"/>
<path d="M12 11.5H14.5C15.0523 11.5 15.5 11.9477 15.5 12.5V12.5C15.5 13.0523 15.0523 13.5 14.5 13.5H12V11.5Z" fill="#75C2BE"/>
<path d="M12 16.25H14.5C15.0523 16.25 15.5 16.6977 15.5 17.25V17.25C15.5 17.8023 15.0523 18.25 14.5 18.25H12V16.25Z" fill="#75C2BE"/>
<path d="M15.5 7.75C15.5 7.19772 15.9477 6.75 16.5 6.75H19C19.5523 6.75 20 7.19772 20 7.75V10.5C20 11.0523 19.5523 11.5 19 11.5H16.5C15.9477 11.5 15.5 11.0523 15.5 10.5V7.75Z" fill="url(#paint3_linear_287_290)"/>
<path d="M15.5 12.5C15.5 11.9477 15.9477 11.5 16.5 11.5H19C19.5523 11.5 20 11.9477 20 12.5V15.25C20 15.8023 19.5523 16.25 19 16.25H16.5C15.9477 16.25 15.5 15.8023 15.5 15.25V12.5Z" fill="url(#paint4_linear_287_290)"/>
<path d="M15.5 17.25C15.5 16.6977 15.9477 16.25 16.5 16.25H19C19.5523 16.25 20 16.6977 20 17.25V20C20 20.5523 19.5523 21 19 21H16.5C15.9477 21 15.5 20.5523 15.5 20V17.25Z" fill="url(#paint5_linear_287_290)"/>
<circle cx="17.25" cy="12" r="5.5" fill="url(#paint6_linear_287_290)"/>
<path d="M15.5 11.25L14.25 13.25L18.25 16.25L20.5 12.25L19.25 10.75L18.25 14.75L15.5 11.25Z" fill="#ECF0F1"/>
<defs>
<linearGradient id="paint0_linear_287_290" x1="4" y1="6.75" x2="12" y2="6.75" gradientUnits="userSpaceOnUse">
<stop stop-color="#4CAF50"/>
<stop offset="1" stop-color="#8BC34A"/>
</linearGradient>
<linearGradient id="paint1_linear_287_290" x1="4" y1="11.5" x2="12" y2="11.5" gradientUnits="userSpaceOnUse">
<stop stop-color="#4CAF50"/>
<stop offset="1" stop-color="#8BC34A"/>
</linearGradient>
<linearGradient id="paint2_linear_287_290" x1="4" y1="16.25" x2="12" y2="16.25" gradientUnits="userSpaceOnUse">
<stop stop-color="#4CAF50"/>
<stop offset="1" stop-color="#8BC34A"/>
</linearGradient>
<linearGradient id="paint3_linear_287_290" x1="15.5" y1="9.125" x2="20" y2="9.125" gradientUnits="userSpaceOnUse">
<stop stop-color="#2196F3"/>
<stop offset="1" stop-color="#3F51B5"/>
</linearGradient>
<linearGradient id="paint4_linear_287_290" x1="15.5" y1="13.875" x2="20" y2="13.875" gradientUnits="userSpaceOnUse">
<stop stop-color="#2196F3"/>
<stop offset="1" stop-color="#3F51B5"/>
</linearGradient>
<linearGradient id="paint5_linear_287_290" x1="15.5" y1="18.625" x2="20" y2="18.625" gradientUnits="userSpaceOnUse">
<stop stop-color="#2196F3"/>
<stop offset="1" stop-color="#3F51B5"/>
</linearGradient>
<linearGradient id="paint6_linear_287_290" x1="11.75" y1="6.5" x2="22.75" y2="17.5" gradientUnits="userSpaceOnUse">
<stop stop-color="#3498DB"/>
<stop offset="1" stop-color="#2ECC71"/>
</linearGradient>
</defs>
</svg>